<mxfile host="Electron" modified="2023-10-03T14:02:25.508Z" agent="Mozilla/5.0 (X11; Linux x86_64) AppleWebKit/537.36 (KHTML, like Gecko) draw.io/21.7.5 Chrome/114.0.5735.289 Electron/25.8.1 Safari/537.36" etag="_GbeeQrZpMF1G3HyTAcJ" version="21.7.5" type="device">
  <diagram name="Page-1" id="c7558073-3199-34d8-9f00-42111426c3f3">
    <mxGraphModel dx="1050" dy="731" grid="1" gridSize="10" guides="1" tooltips="1" connect="1" arrows="1" fold="1" page="1" pageScale="1" pageWidth="1169" pageHeight="827" background="none" math="0" shadow="0">
      <root>
        <mxCell id="0" />
        <mxCell id="1" parent="0" />
        <mxCell id="2" value="&lt;p style=&quot;margin: 4px 0px 0px; text-align: center; text-decoration: underline; font-size: 14px;&quot;&gt;&lt;span style=&quot;background-color: initial;&quot;&gt;&lt;font style=&quot;font-size: 14px;&quot;&gt;&lt;br&gt;&lt;/font&gt;&lt;/span&gt;&lt;/p&gt;&lt;p style=&quot;margin: 4px 0px 0px; text-align: center; text-decoration: underline; font-size: 14px;&quot;&gt;&lt;span style=&quot;background-color: initial;&quot;&gt;&lt;font style=&quot;font-size: 14px;&quot;&gt;General&lt;/font&gt;&lt;/span&gt;&lt;/p&gt;&lt;p style=&quot;margin: 4px 0px 0px; text-align: center; text-decoration: underline; font-size: 14px;&quot;&gt;&lt;span style=&quot;background-color: initial;&quot;&gt;&lt;font style=&quot;font-size: 14px;&quot;&gt;Users&lt;/font&gt;&lt;/span&gt;&lt;br&gt;&lt;/p&gt;" style="verticalAlign=middle;align=center;overflow=fill;fontSize=12;fontFamily=Helvetica;html=1;rounded=1;fontStyle=1;strokeWidth=3;fillColor=#E6FFCC" parent="1" vertex="1">
          <mxGeometry x="324" y="251" width="110" height="90" as="geometry" />
        </mxCell>
        <mxCell id="8" value="&lt;p style=&quot;margin: 4px 0px 0px; text-align: center; text-decoration: underline; font-size: 14px;&quot;&gt;&lt;font style=&quot;font-size: 14px;&quot;&gt;&lt;br&gt;&lt;/font&gt;&lt;/p&gt;&lt;p style=&quot;margin: 4px 0px 0px; text-align: center; text-decoration: underline; font-size: 14px;&quot;&gt;&lt;font style=&quot;font-size: 14px;&quot;&gt;Support and&lt;/font&gt;&lt;/p&gt;&lt;p style=&quot;margin: 4px 0px 0px; text-align: center; text-decoration: underline; font-size: 14px;&quot;&gt;&lt;font style=&quot;font-size: 14px;&quot;&gt;Moderation&lt;/font&gt;&lt;/p&gt;" style="verticalAlign=middle;align=center;overflow=fill;fontSize=12;fontFamily=Helvetica;html=1;rounded=1;fontStyle=1;strokeWidth=3;fillColor=#E6FFCC" parent="1" vertex="1">
          <mxGeometry x="777" y="180" width="110" height="90" as="geometry" />
        </mxCell>
        <mxCell id="9" value="&lt;p style=&quot;margin: 0px; margin-top: 4px; text-align: center; text-decoration: underline;&quot;&gt;&lt;font style=&quot;font-size: 14px;&quot;&gt;&lt;br&gt;&lt;/font&gt;&lt;/p&gt;&lt;p style=&quot;margin: 0px; margin-top: 4px; text-align: center; text-decoration: underline;&quot;&gt;&lt;font style=&quot;font-size: 14px;&quot;&gt;Developers&lt;/font&gt;&lt;/p&gt;" style="verticalAlign=middle;align=center;overflow=fill;fontSize=12;fontFamily=Helvetica;html=1;rounded=1;fontStyle=1;strokeWidth=3;fillColor=#E6FFCC" parent="1" vertex="1">
          <mxGeometry x="757" y="510" width="110" height="70" as="geometry" />
        </mxCell>
        <mxCell id="54" value="Post and interact with tweets,&#xa;profile info, interests, payment&#xa;info, media (picture, video, etc.)" style="text;spacingTop=-5;align=right;fontColor=#0000FF;" parent="1" vertex="1">
          <mxGeometry x="337" y="341" width="130" height="49" as="geometry" />
        </mxCell>
        <mxCell id="55" value="" style="edgeStyle=elbowEdgeStyle;elbow=horizontal;strokeColor=#0000FF;strokeWidth=2;entryX=0.064;entryY=0.001;entryDx=0;entryDy=0;entryPerimeter=0;exitX=1;exitY=0.75;exitDx=0;exitDy=0;" parent="1" source="2" target="5" edge="1">
          <mxGeometry width="100" height="100" relative="1" as="geometry">
            <mxPoint x="457" y="310" as="sourcePoint" />
            <mxPoint x="477" y="391" as="targetPoint" />
            <Array as="points">
              <mxPoint x="477" y="320" />
              <mxPoint x="457" y="379" />
              <mxPoint x="477" y="369" />
            </Array>
          </mxGeometry>
        </mxCell>
        <mxCell id="56" value="" style="edgeStyle=elbowEdgeStyle;elbow=horizontal;strokeColor=#000085;strokeWidth=2;exitX=1;exitY=0.5;exitDx=0;exitDy=0;entryX=1;entryY=0.5;entryDx=0;entryDy=0;" parent="1" target="2" edge="1">
          <mxGeometry width="100" height="100" relative="1" as="geometry">
            <mxPoint x="501" y="391" as="sourcePoint" />
            <mxPoint x="440" y="296" as="targetPoint" />
            <Array as="points">
              <mxPoint x="501" y="340" />
              <mxPoint x="501" y="296" />
            </Array>
          </mxGeometry>
        </mxCell>
        <mxCell id="57" value="View and interact with tweets,&#xa;community content, download&#xa;videos, live-streaming, custom&#xa;                    profiles, custom&#xa;                    feeds, feed updates,&#xa;                    trending topics,&#xa;                    notifications, ads" style="text;spacingTop=-5;align=left;fontColor=#000085;" parent="1" vertex="1">
          <mxGeometry x="438" y="247" width="160" height="84" as="geometry" />
        </mxCell>
        <mxCell id="60" value="Tweet data, user data,&#xa;bugs/problems, video&#xa;data, live-stream data,&#xa;" style="text;spacingTop=-5;align=right;fontColor=#009900;" parent="1" vertex="1">
          <mxGeometry x="632" y="445" width="130" height="45" as="geometry" />
        </mxCell>
        <mxCell id="61" value="Applications,&#xa;tools, updates,&#xa;debuggers, bug&#xa;fixes/updates" style="text;spacingTop=-5;align=left;fontColor=#00CC00;" parent="1" vertex="1">
          <mxGeometry x="807" y="446" width="80" height="44" as="geometry" />
        </mxCell>
        <mxCell id="68" value="" style="edgeStyle=elbowEdgeStyle;elbow=horizontal;strokeColor=#940099;strokeWidth=2;entryX=1;entryY=0.25;entryDx=0;entryDy=0;exitX=0.25;exitY=1;exitDx=0;exitDy=0;" parent="1" source="8" target="5" edge="1">
          <mxGeometry width="100" height="100" relative="1" as="geometry">
            <mxPoint x="805" y="331" as="sourcePoint" />
            <mxPoint x="795" y="403.5" as="targetPoint" />
            <Array as="points">
              <mxPoint x="805" y="360" />
            </Array>
          </mxGeometry>
        </mxCell>
        <mxCell id="69" value="" style="edgeStyle=segmentEdgeStyle;strokeColor=#D100D9;strokeWidth=2;exitX=0.555;exitY=0.003;exitDx=0;exitDy=0;exitPerimeter=0;" parent="1" source="5" edge="1">
          <mxGeometry width="100" height="100" relative="1" as="geometry">
            <mxPoint x="634.7800000000001" y="374.35999999999996" as="sourcePoint" />
            <mxPoint x="777" y="240" as="targetPoint" />
            <Array as="points">
              <mxPoint x="635" y="240" />
            </Array>
          </mxGeometry>
        </mxCell>
        <mxCell id="70" value="User reports, flagged&#xa;content, tweets, videos,&#xa;live-streams" style="text;spacingTop=-5;align=left;fontColor=#D100D9;" parent="1" vertex="1">
          <mxGeometry x="639" y="244" width="128" height="136" as="geometry" />
        </mxCell>
        <mxCell id="71" value="Support and help&#xa;responses, content&#xa;moderation actions&#xa;(like takedowns&#xa;of content)" style="text;spacingTop=-5;align=left;fontColor=#940099;" parent="1" vertex="1">
          <mxGeometry x="807" y="270" width="90" height="130" as="geometry" />
        </mxCell>
        <mxCell id="76" value="" style="edgeStyle=elbowEdgeStyle;elbow=horizontal;strokeColor=#00CC00;strokeWidth=2;entryX=1;entryY=0.75;entryDx=0;entryDy=0;" parent="1" target="5" edge="1">
          <mxGeometry width="100" height="100" relative="1" as="geometry">
            <mxPoint x="807" y="510" as="sourcePoint" />
            <mxPoint x="816" y="428.5" as="targetPoint" />
            <Array as="points">
              <mxPoint x="807" y="430" />
            </Array>
          </mxGeometry>
        </mxCell>
        <mxCell id="77" value="" style="edgeStyle=elbowEdgeStyle;elbow=horizontal;strokeColor=#009900;strokeWidth=2" parent="1" edge="1">
          <mxGeometry width="100" height="100" relative="1" as="geometry">
            <mxPoint x="769" y="441" as="sourcePoint" />
            <mxPoint x="769" y="510" as="targetPoint" />
            <Array as="points">
              <mxPoint x="769" y="480" />
            </Array>
          </mxGeometry>
        </mxCell>
        <mxCell id="suALSsnGtb8dUDYRmgGv-98" style="edgeStyle=orthogonalEdgeStyle;rounded=0;orthogonalLoop=1;jettySize=auto;html=1;exitX=0.5;exitY=1;exitDx=0;exitDy=0;" parent="1" source="57" target="57" edge="1">
          <mxGeometry relative="1" as="geometry" />
        </mxCell>
        <mxCell id="5" value="Twitter+" style="shape=process;whiteSpace=wrap;align=center;verticalAlign=middle;size=0.0475;fontStyle=1;strokeWidth=3;fillColor=#FFCCCC;fontSize=20;" parent="1" vertex="1">
          <mxGeometry x="457" y="391" width="320" height="50" as="geometry" />
        </mxCell>
        <mxCell id="GNRxiBC9_Ulbca9XYccH-94" value="" style="edgeStyle=elbowEdgeStyle;elbow=horizontal;strokeColor=#8F6C1A;strokeWidth=2;entryX=1;entryY=0.5;entryDx=0;entryDy=0;exitX=1;exitY=0.5;exitDx=0;exitDy=0;startArrow=none;startFill=0;" parent="1" source="8" target="9" edge="1">
          <mxGeometry width="100" height="100" relative="1" as="geometry">
            <mxPoint x="975" y="430" as="sourcePoint" />
            <mxPoint x="947" y="564" as="targetPoint" />
            <Array as="points">
              <mxPoint x="947" y="380" />
            </Array>
          </mxGeometry>
        </mxCell>
        <mxCell id="GNRxiBC9_Ulbca9XYccH-97" value="Bugs" style="text;spacingTop=-5;align=left;fontColor=#8F6C1A;" parent="1" vertex="1">
          <mxGeometry x="957" y="390" width="30" height="25" as="geometry" />
        </mxCell>
        <mxCell id="GNRxiBC9_Ulbca9XYccH-98" value="" style="edgeStyle=orthogonalEdgeStyle;elbow=horizontal;strokeColor=#8F6C1A;strokeWidth=2;startArrow=none;startFill=0;exitX=0.5;exitY=0;exitDx=0;exitDy=0;endArrow=none;endFill=0;" parent="1" source="2" edge="1">
          <mxGeometry width="100" height="100" relative="1" as="geometry">
            <mxPoint x="387" y="210" as="sourcePoint" />
            <mxPoint x="947" y="295" as="targetPoint" />
            <Array as="points">
              <mxPoint x="377" y="251" />
              <mxPoint x="377" y="130" />
              <mxPoint x="947" y="130" />
              <mxPoint x="947" y="295" />
            </Array>
          </mxGeometry>
        </mxCell>
      </root>
    </mxGraphModel>
  </diagram>
</mxfile>
